<?xml version="1.0" encoding="UTF-8"?>
<svg version="1.1" xmlns="http://www.w3.org/2000/svg" width="1080" height="1080">
<path d="M0 0 C0.67579102 0.31936523 1.35158203 0.63873047 2.04785156 0.96777344 C23.59864042 11.21766577 43.29019561 24.21601329 62 39 C62.02187378 37.81410278 62.02187378 37.81410278 62.04418945 36.60424805 C62.11941703 32.96488119 62.21582859 29.32635794 62.3125 25.6875 C62.33505859 24.44419922 62.35761719 23.20089844 62.38085938 21.91992188 C62.79596035 7.54233367 66.11769781 -4.39999306 75.98828125 -15.1484375 C85.45669279 -23.86305317 96.26150013 -26.45702367 108.77099609 -26.40405273 C109.91531601 -26.41091599 111.05963593 -26.41777924 112.2386322 -26.42485046 C116.0003622 -26.44306791 119.76167309 -26.43928774 123.5234375 -26.43359375 C126.15223322 -26.43815814 128.78102775 -26.44346448 131.40982056 -26.44947815 C136.91225145 -26.45948373 142.41456464 -26.45623311 147.91699219 -26.44604492 C154.25244022 -26.43457261 160.58746448 -26.44863315 166.92285669 -26.4754414 C173.04766707 -26.50037582 179.17228375 -26.50275825 185.29713821 -26.49632454 C187.88934661 -26.49617168 190.48156331 -26.50218644 193.07374191 -26.51461601 C196.70621526 -26.52958021 200.33776922 -26.51880746 203.97021484 -26.50170898 C205.02926529 -26.51137695 206.08831573 -26.52104492 207.17945862 -26.53100586 C219.88634945 -26.40646788 228.86564472 -21.78914454 237.9375 -13.15625 C246.00520621 -4.67124864 249.15500393 5.09536104 249.13422108 16.56408691 C249.13657331 17.44137308 249.13892554 18.31865924 249.14134905 19.22252983 C249.14804321 22.18287073 249.1475807 25.14316778 249.14717102 28.10351562 C249.15046939 30.2391876 249.1541949 32.37485896 249.1583125 34.51052952 C249.16834377 40.3957425 249.17205111 46.28094527 249.17470181 52.16616559 C249.17860154 58.50722008 249.18818014 64.84826647 249.19691467 71.1893158 C249.21575403 85.7871676 249.22593679 100.38501842 249.23437535 114.98287935 C249.23858189 122.19709818 249.2438039 129.41131618 249.24905988 136.6255343 C249.26695101 161.32181119 249.28194657 186.01808832 249.28938007 210.71437073 C249.28985483 212.2649071 249.29033072 213.81544348 249.29080774 215.36597985 C249.2911623 216.51936851 249.2911623 216.51936851 249.29152403 217.69605795 C249.29272522 221.59180556 249.29394067 225.48755317 249.29516602 229.38330078 C249.29540617 230.15642349 249.29564632 230.92954619 249.29589374 231.72609685 C249.30378522 256.78794907 249.32721346 281.84975394 249.35972196 306.91158548 C249.39403055 333.40956392 249.41373221 359.90751466 249.41702431 386.40551567 C249.41744185 389.31526567 249.41792141 392.22501565 249.41844749 395.13476562 C249.41857069 395.85122565 249.41869388 396.56768567 249.4188208 397.3058566 C249.42115164 408.82950321 249.43680518 420.35309479 249.45728934 431.87672179 C249.47755938 443.46388895 249.48268603 455.05097461 249.47351871 466.6381579 C249.4689696 472.91401573 249.47089607 479.18969507 249.49028015 485.46552849 C249.50788051 491.21351237 249.50693916 496.96118714 249.49138286 502.70917416 C249.48900206 504.78597412 249.49335471 506.86279531 249.50521151 508.9395628 C249.58678829 524.17469164 248.53841619 537.03018476 238 549 C227.02127464 559.28761855 215.63979139 562.30395792 200.90332031 562.29052734 C199.83048798 562.29724457 198.75765564 562.30396179 197.65231323 562.31088257 C194.12753589 562.32978336 190.60294978 562.33378283 187.078125 562.3359375 C184.61106286 562.34237105 182.14400148 562.34909982 179.67694092 562.35610962 C174.51247388 562.36806271 169.34807364 562.37179248 164.18359375 562.37060547 C157.59233728 562.37040243 151.00151268 562.39769862 144.41035843 562.43214989 C139.316 562.45447617 134.22174455 562.45844124 129.12734222 562.45738602 C126.69866193 562.45973357 124.26997844 562.46850894 121.84134674 562.48405075 C91.14048692 562.66212397 91.14048692 562.66212397 78 552 C77.37480469 551.49855469 76.74960937 550.99710938 76.10546875 550.48046875 C67.54393292 542.81425693 63.54152591 531.70170177 62.75170898 520.46875 C62.5816809 516.45819064 62.46604068 512.45040237 62.375 508.4375 C62.3367343 507.03318119 62.29767788 505.62888369 62.2578125 504.22460938 C62.16411971 500.81653396 62.07839926 497.40845577 62 494 C61.55422607 494.36125977 61.10845215 494.72251953 60.64916992 495.09472656 C49.2550603 504.27496605 37.58665106 512.53714174 25 520 C23.89470947 520.65693848 23.89470947 520.65693848 22.76708984 521.32714844 C-44.09262406 560.65989485 -124.96182445 570.91780776 -200 552 C-238.92799476 541.75961332 -275.431244 523.99570945 -307 499 C-308.48886719 497.83017578 -308.48886719 497.83017578 -310.0078125 496.63671875 C-326.3740549 483.5110856 -342.20158699 468.65979379 -355 452 C-355.77214844 451.03320312 -356.54429687 450.06640625 -357.33984375 449.0703125 C-390.11499138 407.54477 -411.0728526 357.40969538 -418 305 C-418.11714355 304.12553223 -418.23428711 303.25106445 -418.35498047 302.35009766 C-428.33661163 223.96537154 -404.6179929 145.10367966 -356.59130859 82.99609375 C-352.96192085 78.44348954 -349.00822988 74.21995787 -345 70 C-343.91009629 68.7347971 -342.8263944 67.46421593 -341.75 66.1875 C-333.02943248 56.19175516 -323.42354743 47.18588372 -313 39 C-311.89351338 38.08352291 -310.78947691 37.16408217 -309.6875 36.2421875 C-282.29674506 13.50056372 -249.83819989 -3.20559457 -216 -14 C-215.1745166 -14.26409668 -214.3490332 -14.52819336 -213.49853516 -14.80029297 C-143.69739451 -36.75486298 -66.04140857 -31.48521827 0 0 Z " fill="#65D008" transform="translate(626,164)"/>
<path d="M0 0 C0.79019531 0.02707031 1.58039063 0.05414063 2.39453125 0.08203125 C3.28205078 0.13423828 3.28205078 0.13423828 4.1875 0.1875 C9.40706843 6.93772041 8.69989273 14.17175245 8.578125 22.30859375 C8.57065493 23.77831753 8.56496562 25.24805135 8.56097412 26.7177887 C8.54577776 30.56655888 8.50654931 34.41471523 8.4621582 38.26324463 C8.42107482 42.19819843 8.40293537 46.13325244 8.3828125 50.06835938 C8.34004785 57.77501796 8.27187113 65.48117263 8.1875 73.1875 C8.7855394 73.20862854 9.3835788 73.22975708 9.9997406 73.25152588 C21.16308493 73.66097833 32.21468351 74.08596744 43.25 75.9375 C44.33885498 76.11522949 45.42770996 76.29295898 46.54956055 76.47607422 C81.09206023 82.29668103 114.75706436 93.94205137 144.1875 113.1875 C144.82171875 113.59935547 145.4559375 114.01121094 146.109375 114.43554688 C161.21502904 124.32261374 175.17964912 135.67346187 188.1875 148.1875 C188.75742676 148.7355127 189.32735352 149.28352539 189.91455078 149.84814453 C196.63016342 156.34612998 203.08622764 162.90870091 208.875 170.26171875 C210.57137893 172.40798196 212.28964449 174.5011305 214.0625 176.58203125 C246.07045393 214.44911906 269.0611269 261.23753516 281.1875 309.1875 C281.47753906 310.3312207 281.76757812 311.47494141 282.06640625 312.65332031 C288.34257327 337.72516324 291.78567545 362.37573342 293.1875 388.1875 C293.23567871 389.06438477 293.28385742 389.94126953 293.33349609 390.84472656 C294.00528814 404.85314982 291.69833702 416.43692352 282.1875 427.1875 C274.52143178 434.1875 274.52143178 434.1875 271.1875 434.1875 C270.94741211 433.53080322 270.70732422 432.87410645 270.45996094 432.19750977 C260.27706658 404.5489878 248.19404559 377.38036791 231.1875 353.1875 C230.44113281 352.1046875 229.69476562 351.021875 228.92578125 349.90625 C220.51106109 337.80912321 211.25555085 326.30915201 201.27734375 315.46484375 C199.87317395 313.93469236 198.49043584 312.38461965 197.12890625 310.81640625 C186.73307501 298.89458143 174.8528977 288.61677563 162.1875 279.1875 C161.23133789 278.47062012 161.23133789 278.47062012 160.25585938 277.73925781 C148.79750216 269.21014697 136.77190398 261.93173494 124.1875 255.1875 C123.4440332 254.7843457 122.70056641 254.38119141 121.93457031 253.96582031 C86.68537351 235.14592598 47.39206781 229.04941373 8.1875 225.1875 C8.19860306 226.00911621 8.20970612 226.83073242 8.22114563 227.67724609 C8.32160119 235.44482559 8.39759263 243.21208725 8.44656086 250.98014832 C8.47258307 254.9732143 8.50784376 258.96574063 8.56469727 262.95849609 C8.61928389 266.81648004 8.64897594 270.67394708 8.66188622 274.5322876 C8.67107871 275.99945201 8.68902953 277.46659019 8.71615028 278.93353271 C8.96134092 292.75350801 8.96134092 292.75350801 4.55857849 298.86387634 C3.1875 300.1875 3.1875 300.1875 0.171875 301.37890625 C-3.44047768 301.14722394 -4.74223811 300.36922801 -7.5625 298.125 C-8.51511719 297.38378906 -9.46773437 296.64257812 -10.44921875 295.87890625 C-10.97950684 295.45367676 -11.50979492 295.02844727 -12.05615234 294.59033203 C-13.98663368 293.04841574 -15.93831934 291.53647322 -17.89453125 290.02734375 C-21.75736479 287.04371168 -25.60522159 284.04140063 -29.44970703 281.03417969 C-33.23180806 278.07821645 -37.0224208 275.13322181 -40.8125 272.1875 C-45.372101 268.64191764 -49.9310485 265.09550096 -54.48828125 261.546875 C-61.08451386 256.41155297 -67.68218837 251.2787807 -74.3125 246.1875 C-81.72863129 240.49280446 -89.10448584 234.74662408 -96.48193359 229.00195312 C-100.25767266 226.06236662 -104.03515535 223.12502285 -107.8125 220.1875 C-109.31250877 219.02084461 -110.81250876 217.85417793 -112.3125 216.6875 C-113.055 216.11 -113.7975 215.5325 -114.5625 214.9375 C-128.8125 203.85416667 -143.0625 192.77083333 -157.3125 181.6875 C-158.0562085 181.10919434 -158.79991699 180.53088867 -159.56616211 179.93505859 C-161.05448196 178.77720689 -162.54228183 177.61868646 -164.02954102 176.45947266 C-167.95407506 173.40203191 -171.88901814 170.35934997 -175.83984375 167.3359375 C-176.66162109 166.70429688 -177.48339844 166.07265625 -178.33007812 165.421875 C-179.90490368 164.21183954 -181.48287621 163.00588516 -183.06445312 161.8046875 C-183.77408203 161.258125 -184.48371094 160.7115625 -185.21484375 160.1484375 C-185.83866943 159.67196777 -186.46249512 159.19549805 -187.10522461 158.70458984 C-190.27510047 155.887829 -191.70778165 154.01028701 -192.25 149.75 C-191.61872635 144.60962883 -189.10937074 142.27601463 -185.2109375 139.00390625 C-184.21320313 138.26011719 -183.21546875 137.51632812 -182.1875 136.75 C-181.02158391 135.87182548 -179.85625212 134.99287485 -178.69140625 134.11328125 C-178.06637207 133.6435791 -177.44133789 133.17387695 -176.79736328 132.68994141 C-173.21159405 129.97569493 -169.67099376 127.20337514 -166.125 124.4375 C-164.57950923 123.23426947 -163.03393539 122.03114565 -161.48828125 120.828125 C-160.71436035 120.22548828 -159.94043945 119.62285156 -159.14306641 119.00195312 C-155.36732734 116.06236662 -151.58984465 113.12502285 -147.8125 110.1875 C-146.31249123 109.02084461 -144.81249124 107.85417793 -143.3125 106.6875 C-129.8125 96.1875 -129.8125 96.1875 -116.3125 85.6875 C-115.56959717 85.10967773 -114.82669434 84.53185547 -114.0612793 83.93652344 C-112.56538338 82.77306688 -111.06945255 81.60965522 -109.57348633 80.44628906 C-105.76040224 77.48088002 -101.94797936 74.51462738 -98.13671875 71.546875 C-90.50790508 65.60766436 -82.86743357 59.68514033 -75.19921875 53.796875 C-68.04496227 48.29327055 -60.93401142 42.73335115 -53.8125 37.1875 C-35.07751221 22.59769631 -35.07751221 22.59769631 -25.91796875 15.57421875 C-23.70691533 13.874906 -21.50135024 12.16979235 -19.30078125 10.45703125 C-18.71723877 10.00424805 -18.13369629 9.55146484 -17.5324707 9.08496094 C-15.91616943 7.83046337 -14.30176881 6.57351808 -12.6875 5.31640625 C-5.19384959 -0.23256043 -5.19384959 -0.23256043 0 0 Z " fill="#F2F3F1" transform="translate(581.8125,285.8125)"/>
<path d="M0 0 C9.76276433 6.66026236 14.05230679 15.80165569 17 27 C20.08973581 44.02423969 19.55520263 64.12571504 9.62109375 78.890625 C3.7070693 86.58598211 -3.33318271 91.91684684 -13 94 C-22.0867289 94.74564728 -31.70790909 95.0780775 -40 91 C-42.31 89.02 -44.62 87.04 -47 85 C-47.33 98.53 -47.66 112.06 -48 126 C-56.58 126 -65.16 126 -74 126 C-74 83.76 -74 41.52 -74 -2 C-65.75 -2 -57.5 -2 -49 -2 C-48.67 0.97 -48.34 3.94 -48 7 C-47.53851562 6.54109375 -47.07703125 6.0821875 -46.6015625 5.609375 C-34.49431324 -5.78005316 -14.79636144 -8.54508778 0 0 Z M-44.375 24.5 C-50.94963827 34.6148281 -49.80006354 47.93348521 -47.69140625 59.33203125 C-46.18226562 65.15543833 -42.84677328 68.64454157 -38 72 C-32.15115285 73.94961572 -25.5053642 73.74233013 -19.625 72 C-13.68520798 67.47444417 -10.61115642 62.27237576 -9 55 C-8.01856076 44.86576352 -7.41335345 32.89965788 -13 24 C-16.5615873 19.95274171 -19.93107999 17.34705073 -25.41796875 16.7265625 C-33.84850326 16.41740327 -38.58990595 18.41042731 -44.375 24.5 Z " fill="#000000" transform="translate(630,812)"/>
<path d="M0 0 C1.29997925 -0.0153479 1.29997925 -0.0153479 2.6262207 -0.03100586 C14.09597404 0.12462321 23.50616928 3.91073008 32 11.5625 C43.60938901 23.72850356 42.3125 40.743822 42.3125 56.4375 C21.5225 56.4375 0.7325 56.4375 -20.6875 56.4375 C-18.76940067 66.02799667 -17.68966911 71.03603585 -9.6875 76.4375 C-3.7499063 78.36148423 3.01500072 78.29906223 8.8125 76.125 C13.33284554 73.07376676 14.17808261 71.77354348 16.3125 66.4375 C24.5625 66.4375 32.8125 66.4375 41.3125 66.4375 C40.01914504 76.78433964 36.9288968 85.41784098 28.53125 92.0390625 C19.43078647 97.77491803 10.6737011 98.63895277 0.1875 98.6875 C-0.90304687 98.708125 -1.99359375 98.72875 -3.1171875 98.75 C-15.18271178 98.80772978 -25.53291364 95.7847595 -34.6953125 87.65625 C-44.61565996 77.17761459 -47.04613496 63.97680298 -47 50.0625 C-47.01611328 49.09828125 -47.03222656 48.1340625 -47.04882812 47.140625 C-47.05701307 34.92868034 -43.38730274 24.28578399 -36.5 14.25 C-25.97674571 3.72674571 -14.64546448 0.13282406 0 0 Z M-16.0625 25.8125 C-19.30608911 29.99919789 -20.6875 33.0696577 -20.6875 38.4375 C-8.1475 38.4375 4.3925 38.4375 17.3125 38.4375 C17.3125 31.17673582 16.69492417 28.74190958 12.3125 23.4375 C3.71485833 16.9368441 -8.81694521 17.7403892 -16.0625 25.8125 Z " fill="#000000" transform="translate(495.6875,807.5625)"/>
<path d="M0 0 C7.91728875 6.4686544 10.8941164 13.47701672 12.65625 23.38671875 C13.03368883 28.66883664 13.00878448 33.92448377 12.94921875 39.21484375 C12.94360808 40.69984504 12.93934496 42.18485196 12.93635559 43.66986084 C12.92502232 47.5365187 12.89565791 51.4028265 12.86224365 55.26934814 C12.83129095 59.23160062 12.81779699 63.1939109 12.80273438 67.15625 C12.77077413 74.89991598 12.71810407 82.64322328 12.65625 90.38671875 C4.73625 90.38671875 -3.18375 90.38671875 -11.34375 90.38671875 C-11.67375 87.08671875 -12.00375 83.78671875 -12.34375 80.38671875 C-13.478125 81.45921875 -14.6125 82.53171875 -15.78125 83.63671875 C-24.10562217 90.92792417 -32.93434298 92.76650054 -43.78515625 92.66796875 C-52.18281695 92.00426779 -60.63191412 89.81253412 -66.34375 83.38671875 C-71.95544873 74.94610888 -73.64511365 66.79787447 -71.8828125 56.76171875 C-69.93462858 49.24402081 -66.97342387 44.73332242 -60.4375 40.5078125 C-45.42362315 32.26051088 -29.1360272 31.89031341 -12.34375 31.38671875 C-12.94497502 23.39209695 -12.94497502 23.39209695 -16.78125 16.69921875 C-22.38871179 13.82710417 -28.31501951 13.43746314 -34.44921875 14.8828125 C-38.62563349 16.45898608 -40.49783644 18.38723937 -42.34375 22.38671875 C-42.67375 23.04671875 -43.00375 23.70671875 -43.34375 24.38671875 C-46.21901069 24.24506545 -49.09388536 24.09853343 -51.96875 23.94921875 C-52.77699219 23.90990234 -53.58523437 23.87058594 -54.41796875 23.83007812 C-58.79525865 23.59875793 -63.02922281 23.21750958 -67.34375 22.38671875 C-65.94224021 13.35011831 -62.5848189 6.49620406 -55.37109375 0.703125 C-40.89316634 -8.69776428 -14.38374995 -9.90081455 0 0 Z M-43.53125 54.94921875 C-46.50493774 58.94831605 -46.76864397 61.37296993 -46.34375 66.38671875 C-44.54812595 69.14000896 -43.29120078 70.91299336 -40.34375 72.38671875 C-32.69131223 73.04790672 -25.60595771 73.2826266 -19.34375 68.38671875 C-15.61747348 64.79118877 -12.4798332 61.53840559 -12.24609375 56.125 C-12.25769531 55.32449219 -12.26929688 54.52398438 -12.28125 53.69921875 C-12.29027344 52.89097656 -12.29929688 52.08273437 -12.30859375 51.25 C-12.32019531 50.63511719 -12.33179688 50.02023437 -12.34375 49.38671875 C-29.03257123 48.27568959 -29.03257123 48.27568959 -43.53125 54.94921875 Z " fill="#000000" transform="translate(218.34375,813.61328125)"/>
<path d="M0 0 C9.57 0 19.14 0 29 0 C33.5 11.25 33.5 11.25 35.01464844 15.44970703 C35.3546991 16.38992706 35.69474976 17.33014709 36.04510498 18.29885864 C36.39631409 19.27531342 36.74752319 20.25176819 37.109375 21.2578125 C37.66688446 22.80140945 37.66688446 22.80140945 38.23565674 24.37619019 C39.40871263 27.62521582 40.57939585 30.87509032 41.75 34.125 C42.55062378 36.34380683 43.35140356 38.56255737 44.15234375 40.78125 C46.10336529 46.18685105 48.05244574 51.59314884 50 57 C52.82240897 50.16419638 55.32907484 43.27499392 57.63671875 36.25 C57.96162796 35.2700708 58.28653717 34.2901416 58.62129211 33.28051758 C59.64626399 30.18796329 60.66716138 27.09408573 61.6875 24 C62.71910863 20.87753958 63.75160657 17.75538014 64.7858429 14.63378906 C65.42632571 12.70009277 66.06520382 10.76586406 66.70231628 8.83105469 C66.98964127 7.96254883 67.27696625 7.09404297 67.57299805 6.19921875 C67.825186 5.43440186 68.07737396 4.66958496 68.33720398 3.8815918 C69 2 69 2 70 0 C79.24 0 88.48 0 98 0 C94.62503411 11.24988629 94.62503411 11.24988629 92.84619141 15.75219727 C92.44746826 16.76722321 92.04874512 17.78224915 91.63793945 18.82803345 C91.21343506 19.89669647 90.78893066 20.9653595 90.3515625 22.06640625 C89.90240479 23.20677338 89.45324707 24.3471405 88.99047852 25.52206421 C87.78716196 28.57493344 86.58033711 31.62638289 85.37158966 34.67710495 C84.11816029 37.84244417 82.86855722 41.00929317 81.61865234 44.17602539 C80.12649477 47.9559601 78.63395158 51.73573983 77.13931274 55.51469421 C74.38582035 62.47886235 71.647898 69.44863872 68.9375 76.4296875 C59.96803181 99.51033941 59.96803181 99.51033941 55.5 109.1875 C55.20947754 109.82357178 54.91895508 110.45964355 54.61962891 111.11499023 C51.81784546 116.93150572 48.30937538 121.75439571 42.5 124.8125 C41.7678125 125.21082031 41.035625 125.60914063 40.28125 126.01953125 C30.9833562 130.01571506 18.51097387 128.83878741 9 126 C8.67 125.67 8.34 125.34 8 125 C8.16687179 118.5305091 9.48392844 112.26642913 11 106 C12.02480469 106.03480469 13.04960938 106.06960938 14.10546875 106.10546875 C15.46612936 106.13362035 16.8268078 106.16091904 18.1875 106.1875 C18.86103516 106.21263672 19.53457031 106.23777344 20.22851562 106.26367188 C24.70427389 106.32917078 27.49074694 105.82016337 31 103 C32.34797293 101.21264959 32.34797293 101.21264959 33.1875 99.1875 C33.49042969 98.54167969 33.79335938 97.89585937 34.10546875 97.23046875 C34.40066406 96.49441406 34.69585938 95.75835938 35 95 C35.39904541 94.1042627 35.79809082 93.20852539 36.20922852 92.28564453 C37.2391055 88.00651996 36.33007621 86.19169338 34.546875 82.19921875 C34.25982193 81.54181702 33.97276886 80.88441528 33.67701721 80.20709229 C32.71925953 78.02547765 31.73475094 75.85704742 30.75 73.6875 C30.07131497 72.15454309 29.3945127 70.62075141 28.71948242 69.08618164 C27.26960494 65.79827298 25.80865963 62.51560041 24.33935547 59.23632812 C20.67837101 51.05796376 17.09519059 42.84531853 13.49841309 34.63858032 C12.33359974 31.98555757 11.16417858 29.33461689 9.99316406 26.68432617 C0 4.05284531 0 4.05284531 0 0 Z " fill="#000000" transform="translate(841,810)"/>
<path d="M0 0 C7.07244387 5.78259243 10.93868914 13.43038167 12.6875 22.3125 C12.6875 23.6325 12.6875 24.9525 12.6875 26.3125 C9.29250696 26.81831854 5.89638518 27.31612244 2.5 27.8125 C1.54029297 27.95558594 0.58058594 28.09867188 -0.40820312 28.24609375 C-1.80522461 28.44912109 -1.80522461 28.44912109 -3.23046875 28.65625 C-4.08406982 28.78193359 -4.9376709 28.90761719 -5.81713867 29.03710938 C-8.33719675 29.31522556 -10.77935782 29.360108 -13.3125 29.3125 C-13.55484375 28.55324219 -13.7971875 27.79398438 -14.046875 27.01171875 C-14.38203125 26.01785156 -14.7171875 25.02398438 -15.0625 24 C-15.54976563 22.52080078 -15.54976563 22.52080078 -16.046875 21.01171875 C-17.44356799 18.03296919 -18.47998703 16.92655767 -21.3125 15.3125 C-26.93590856 14.11406867 -30.88086419 14.05785872 -36.3125 16.3125 C-41.88768994 20.74731018 -44.24066996 26.39345427 -45.3125 33.3125 C-46.05045323 44.59059911 -45.66619201 54.48090516 -40.625 64.75 C-37.03264235 68.73072063 -33.3350563 70.14372782 -28.00390625 70.44140625 C-23.95398573 70.21603125 -21.49473593 69.41711692 -17.9375 67.375 C-14.37326181 63.63526154 -14.37326181 63.63526154 -12.3125 54.3125 C-3.7325 54.3125 4.8475 54.3125 13.6875 54.3125 C13.6875 64.39748851 11.26867872 72.58683903 4.6640625 80.34375 C-3.60629795 88.58142128 -13.3528376 91.67624255 -24.87890625 91.72265625 C-26.33103516 91.70525391 -26.33103516 91.70525391 -27.8125 91.6875 C-28.78058594 91.69910156 -29.74867188 91.71070313 -30.74609375 91.72265625 C-42.3608236 91.67588553 -53.15120515 88.36756563 -61.578125 80.0859375 C-72.25709746 67.6271363 -74.40915448 51.25750803 -73.3125 35.3125 C-71.74689823 23.2613133 -67.92125475 11.57250439 -58.79296875 3.1328125 C-42.16260168 -9.07151987 -17.55163663 -11.7337757 0 0 Z " fill="#000000" transform="translate(421.3125,814.6875)"/>
<path d="M0 0 C1.44463623 0.01135986 1.44463623 0.01135986 2.91845703 0.02294922 C13.56741793 0.26909527 23.49722663 2.51963235 31.125 10.4375 C36.06187806 16.7351121 40.125 25.2470384 40.125 33.4375 C36.73000696 33.94331854 33.33388518 34.44112244 29.9375 34.9375 C28.97779297 35.08058594 28.01808594 35.22367188 27.02929688 35.37109375 C25.63227539 35.57412109 25.63227539 35.57412109 24.20703125 35.78125 C23.35343018 35.90693359 22.4998291 36.03261719 21.62036133 36.16210938 C19.10030325 36.44022556 16.65814218 36.485108 14.125 36.4375 C13.47809078 34.8337669 12.83251236 33.22949694 12.1875 31.625 C11.82785156 30.73167969 11.46820313 29.83835937 11.09765625 28.91796875 C10.38886514 27.1104091 9.7389753 25.27942591 9.125 23.4375 C3.35188927 21.41184711 -0.91079744 21.09074458 -6.875 22.4375 C-11.93946453 24.96973226 -14.8778524 28.1722927 -16.875 33.4375 C-20.09887706 44.85176744 -20.07065276 58.65586055 -14.96875 69.515625 C-12.70027095 73.50166676 -10.8814562 75.03104654 -6.625 76.75 C-1.28038139 77.72984675 2.84535151 77.40001825 7.9375 75.25 C12.30185091 71.63382353 13.36933887 66.70448339 15.125 61.4375 C23.705 61.4375 32.285 61.4375 41.125 61.4375 C39.5024571 76.04038612 35.57619458 84.42480662 24.1875 93.875 C16.10672943 97.99784213 8.23309491 98.96500238 -0.75 98.875 C-2.33554687 98.86364014 -2.33554687 98.86364014 -3.953125 98.85205078 C-16.4487386 98.58786883 -25.34234386 95.55863335 -34.51953125 86.8828125 C-43.89823721 76.95800468 -46.26643423 63.78070474 -46.1875 50.625 C-46.18012817 49.1714209 -46.18012817 49.1714209 -46.17260742 47.68847656 C-45.95959395 34.66297569 -42.78889744 21.92680414 -33.7265625 12.09765625 C-23.84643851 3.23889529 -13.0671821 -0.1445028 0 0 Z " fill="#000000" transform="translate(293.875,807.5625)"/>
<path d="M0 0 C1.32675617 4.52502932 0.57249199 8.32125901 -0.4375 12.8125 C-0.58509766 13.50537109 -0.73269531 14.19824219 -0.88476562 14.91210938 C-1.24775612 16.60996815 -1.62268223 18.30526763 -2 20 C-2.85722656 19.89300781 -3.71445312 19.78601563 -4.59765625 19.67578125 C-13.79913192 18.54211456 -13.79913192 18.54211456 -22 22 C-24.00200302 25.67033887 -24.98714903 28.94859611 -26 33 C-18.74 33 -11.48 33 -4 33 C-4 39.93 -4 46.86 -4 54 C-11.26 54 -18.52 54 -26 54 C-26 78.09 -26 102.18 -26 127 C-34.25 127 -42.5 127 -51 127 C-51 102.91 -51 78.82 -51 54 C-55.95 54 -60.9 54 -66 54 C-66 47.07 -66 40.14 -66 33 C-61.05 33 -56.1 33 -51 33 C-51.0825 31.411875 -51.165 29.82375 -51.25 28.1875 C-51.22791023 19.60562246 -48.68433189 11.71966264 -42.6953125 5.4296875 C-31.10120505 -4.34783169 -13.85341603 -3.65078258 0 0 Z " fill="#000000" transform="translate(837,777)"/>
<path d="M0 0 C8.58 0 17.16 0 26 0 C26 7.92 26 15.84 26 24 C32.93 24 39.86 24 47 24 C47 30.93 47 37.86 47 45 C40.07 45 33.14 45 26 45 C26.09699591 51.31749684 26.19976627 57.63434707 26.31738281 63.95141602 C26.35563385 66.09979534 26.39049347 68.24823787 26.421875 70.39672852 C26.46760937 73.48737146 26.52559056 76.57758081 26.5859375 79.66796875 C26.59748871 80.62648239 26.60903992 81.58499603 26.62094116 82.57255554 C26.71884872 89.02971562 26.71884872 89.02971562 29 95 C33.08404156 98.22424334 36.39600496 98.09263049 41.375 97.6875 C43.23125 97.460625 45.0875 97.23375 47 97 C48.32 103.6 49.64 110.2 51 117 C43.89356987 118.5792067 38.54957671 119.33815348 31.5 119.3125 C30.61441406 119.32861328 29.72882812 119.34472656 28.81640625 119.36132812 C21.26960645 119.36686909 15.02684622 117.99886071 8.6875 113.8125 C-2.91618887 101.66910467 -0.25433826 82.20931077 -0.125 66.6875 C-0.11494844 64.5787803 -0.10582645 62.47005595 -0.09765625 60.36132812 C-0.07581908 55.2407689 -0.04140944 50.12043682 0 45 C-4.62 45 -9.24 45 -14 45 C-14 38.07 -14 31.14 -14 24 C-9.38 24 -4.76 24 0 24 C0 16.08 0 8.16 0 0 Z " fill="#000000" transform="translate(671,786)"/>
<path d="M0 0 C8.58 0 17.16 0 26 0 C26 31.02 26 62.04 26 94 C17.42 94 8.84 94 0 94 C0 62.98 0 31.96 0 0 Z " fill="#000000" transform="translate(733,810)"/>
<path d="M0 0 C8.58 0 17.16 0 26 0 C26 7.59 26 15.18 26 23 C17.42 23 8.84 23 0 23 C0 15.41 0 7.82 0 0 Z " fill="#000000" transform="translate(733,777)"/>
</svg>
